<svg width="368" height="298" viewBox="0 0 368 298" fill="none" xmlns="http://www.w3.org/2000/svg">
<g clip-path="url(#clip0)">
<path d="M181.624 2.73531L118.129 69.6625L34.8779 109.366C34.4737 109.556 34.1128 109.826 33.8173 110.161C33.5218 110.495 33.2981 110.887 33.1601 111.312C33.022 111.736 32.9725 112.185 33.0145 112.629C33.0566 113.073 33.1894 113.505 33.4047 113.896L77.4052 194.955L89.444 286.421C89.5029 286.863 89.6511 287.288 89.8794 287.671C90.1076 288.053 90.4113 288.386 90.772 288.648C91.1326 288.909 91.5427 289.095 91.9774 289.194C92.412 289.292 92.8622 289.301 93.3004 289.22L184.003 272.395L274.706 289.22C275.144 289.301 275.594 289.292 276.029 289.194C276.464 289.095 276.874 288.909 277.234 288.648C277.595 288.386 277.899 288.053 278.127 287.671C278.355 287.288 278.503 286.863 278.562 286.421L290.589 194.955L334.618 113.892C334.833 113.5 334.966 113.069 335.008 112.625C335.05 112.181 335.001 111.732 334.863 111.308C334.724 110.883 334.501 110.491 334.205 110.157C333.91 109.822 333.549 109.551 333.145 109.362L249.894 69.6584L186.403 2.73124C186.097 2.4057 185.729 2.14622 185.319 1.96885C184.909 1.79147 184.468 1.69995 184.021 1.69995C183.575 1.69995 183.134 1.79147 182.724 1.96885C182.314 2.14622 181.946 2.4057 181.64 2.73124" fill="#FF642D"/>
<path d="M181.624 2.73531L118.129 69.6625L34.8779 109.366C34.4737 109.556 34.1128 109.826 33.8173 110.161C33.5218 110.495 33.2981 110.887 33.1601 111.312C33.022 111.736 32.9725 112.185 33.0145 112.629C33.0566 113.073 33.1894 113.505 33.4047 113.896L77.4052 194.955L89.444 286.421C89.5029 286.863 89.6511 287.288 89.8794 287.671C90.1076 288.053 90.4113 288.386 90.772 288.648C91.1326 288.909 91.5427 289.095 91.9774 289.194C92.412 289.292 92.8622 289.301 93.3004 289.22L184.003 272.395L274.706 289.22C275.144 289.301 275.594 289.292 276.029 289.194C276.464 289.095 276.874 288.909 277.234 288.648C277.595 288.386 277.899 288.053 278.127 287.671C278.355 287.288 278.503 286.863 278.562 286.421L290.589 194.955L334.618 113.892C334.833 113.5 334.966 113.069 335.008 112.625C335.05 112.181 335.001 111.732 334.863 111.308C334.724 110.883 334.501 110.491 334.205 110.157C333.91 109.822 333.549 109.551 333.145 109.362L249.894 69.6584L186.403 2.73124C186.097 2.4057 185.729 2.14622 185.319 1.96885C184.909 1.79147 184.468 1.69995 184.021 1.69995C183.575 1.69995 183.134 1.79147 182.724 1.96885C182.314 2.14622 181.946 2.4057 181.64 2.73124" stroke="white" stroke-width="2" stroke-linecap="round" stroke-linejoin="round"/>
<path d="M164.211 270.367C164.211 270.367 188.97 293.673 194.944 296.077C202.845 299.239 222.801 290.543 243.719 266.029C264.638 241.515 265.034 237.956 263.847 233.61C262.659 229.264 236.317 207.361 236.317 207.361L164.211 270.367Z" fill="white"/>
<path d="M246.584 232.047C253.567 237.584 260.161 249.729 260.161 249.729L270.654 232.047L260.288 215.045L246.584 232.047Z" fill="#FF642D"/>
<path d="M164.211 270.367C164.211 270.367 188.97 293.673 194.944 296.077C202.845 299.239 222.801 290.543 243.719 266.029C264.638 241.515 265.034 237.956 263.847 233.61C262.659 229.264 236.317 207.361 236.317 207.361L164.211 270.367Z" stroke="black" stroke-width="1.2" stroke-linecap="round" stroke-linejoin="round"/>
<path d="M100.556 118.54C100.556 118.54 94.0269 133.696 102.536 169.392C109.824 199.999 122.157 223.448 133.685 239.131C143.329 252.243 164.211 270.367 164.211 270.367C164.211 270.367 195.438 252.574 210.272 232.822C225.106 213.07 100.556 118.54 100.556 118.54Z" fill="#FF642D"/>
<path d="M105.972 131.154C105.355 148.857 108.477 177.485 122.993 211.059C133.545 235.462 152.412 257.578 164.372 270.11C164.372 270.11 123.808 242.015 106.75 185.322C91.063 125.925 101.231 125.118 101.231 125.118L105.972 131.154Z" fill="white"/>
<path d="M100.556 118.54C100.556 118.54 94.0269 133.696 102.536 169.392C109.824 199.999 122.157 223.448 133.685 239.131C143.329 252.243 164.211 270.367 164.211 270.367C164.211 270.367 195.438 252.574 210.272 232.822C225.106 213.07 100.556 118.54 100.556 118.54Z" stroke="black" stroke-width="1.2" stroke-linecap="round" stroke-linejoin="round"/>
<path d="M304.252 181.292C304.438 180.658 304.546 180.002 304.574 179.342L305.19 168.858L301.681 172.661L163.745 34.1626C162.293 32.6987 160.34 31.8391 158.279 31.7565C156.218 31.674 154.202 32.3747 152.637 33.7178L81.4617 94.5563L76.2912 94.0216C76.2912 94.0216 75.7729 102.073 75.7729 102.294L75.7484 102.453C75.6297 103.627 75.7671 104.813 76.1511 105.929C76.5351 107.045 77.1565 108.064 77.9725 108.917L217.442 254.561C218.184 255.339 219.072 255.963 220.055 256.397C221.038 256.831 222.098 257.067 223.172 257.091C224.247 257.114 225.316 256.925 226.317 256.534C227.318 256.144 228.233 255.559 229.008 254.814L302.056 184.855C303.078 183.879 303.828 182.654 304.231 181.3V181.3L304.252 181.292Z" fill="black" stroke="black" stroke-width="1.2" stroke-linecap="round" stroke-linejoin="round"/>
<path d="M302.672 175.652L229.624 245.612C228.849 246.357 227.935 246.942 226.934 247.333C225.933 247.724 224.864 247.913 223.789 247.89C222.715 247.867 221.655 247.632 220.672 247.198C219.688 246.764 218.8 246.141 218.058 245.363L78.5805 99.6736C77.8111 98.8693 77.2139 97.9166 76.8254 96.8735C76.4369 95.8305 76.2653 94.7192 76.3211 93.6076C76.3768 92.496 76.6588 91.4074 77.1498 90.4085C77.6407 89.4096 78.3303 88.5214 79.1763 87.7981L153.245 24.5029C154.81 23.1599 156.826 22.4592 158.887 22.5417C160.947 22.6242 162.901 23.4839 164.353 24.9478L302.807 163.965C303.578 164.734 304.188 165.65 304.599 166.658C305.011 167.667 305.217 168.748 305.204 169.837C305.191 170.926 304.961 172.002 304.526 173.001C304.091 173.999 303.461 174.901 302.672 175.652Z" fill="white"/>
<path d="M181.498 207.133L267.887 128.905" stroke="#FF642D" stroke-width="1.2" stroke-linecap="round" stroke-linejoin="round"/>
<path d="M302.672 175.652L229.624 245.612C228.849 246.357 227.935 246.942 226.934 247.333C225.933 247.724 224.864 247.913 223.789 247.89C222.715 247.867 221.655 247.632 220.672 247.198C219.688 246.764 218.8 246.141 218.058 245.363L78.5805 99.6736C77.8111 98.8693 77.2139 97.9166 76.8254 96.8735C76.4369 95.8305 76.2653 94.7192 76.3211 93.6076C76.3768 92.496 76.6588 91.4074 77.1498 90.4085C77.6407 89.4096 78.3303 88.5214 79.1763 87.7981L153.245 24.5029C154.81 23.1599 156.826 22.4592 158.887 22.5417C160.947 22.6242 162.901 23.4839 164.353 24.9478L302.807 163.965C303.578 164.734 304.188 165.65 304.599 166.658C305.011 167.667 305.217 168.748 305.204 169.837C305.191 170.926 304.961 172.002 304.526 173.001C304.091 173.999 303.461 174.901 302.672 175.652Z" stroke="black" stroke-width="1.2" stroke-linecap="round" stroke-linejoin="round"/>
<path d="M238.549 109.374L165.602 174.93L127.564 135.753C127.26 135.437 127.023 135.063 126.867 134.654C126.711 134.244 126.639 133.807 126.656 133.369C126.672 132.931 126.776 132.501 126.963 132.105C127.149 131.708 127.413 131.353 127.739 131.06L195.85 70.7603C196.472 70.2142 197.278 69.9248 198.105 69.9506C198.933 69.9763 199.719 70.3154 200.306 70.8991L238.549 109.374Z" fill="#FF642D" stroke="black" stroke-width="1.2" stroke-linecap="round" stroke-linejoin="round"/>
<path d="M250.551 126.22L182.204 187.483C181.579 188.052 180.758 188.357 179.913 188.334C179.068 188.31 178.266 187.96 177.674 187.356L165.602 174.93L238.549 109.374L250.649 121.543C250.955 121.854 251.195 122.223 251.356 122.628C251.517 123.033 251.596 123.466 251.587 123.902C251.577 124.338 251.481 124.768 251.303 125.166C251.125 125.564 250.87 125.923 250.551 126.22V126.22Z" fill="white" stroke="black" stroke-width="1.2" stroke-linecap="round" stroke-linejoin="round"/>
<path d="M211.5 152.918L183.738 177.485L178.392 172.094L205.926 147.535L211.5 152.918Z" fill="#FF642D" stroke="#FF642D" stroke-width="1.2" stroke-linecap="round" stroke-linejoin="round"/>
<path d="M212.325 144.029L236.965 121.833" stroke="#FF642D" stroke-width="1.2" stroke-linecap="round" stroke-linejoin="round"/>
<path d="M215.214 146.755L233.884 129.987" stroke="#FF642D" stroke-width="1.2" stroke-linecap="round" stroke-linejoin="round"/>
<path d="M147.295 156.076L152.755 128.481L195.699 120.572L200.2 103.44L226.853 97.5557L238.553 109.37L165.602 174.926L147.295 156.076Z" fill="black"/>
<path d="M243.695 49.2904C244.164 48.7908 244.67 48.327 245.209 47.9029C246.911 46.5168 249.004 45.6965 251.195 45.5564C256.631 45.2748 261.594 49.319 261.565 55.3016C261.542 56.2733 261.405 57.2389 261.157 58.1787C260.82 59.6254 260.311 61.0269 259.643 62.3535C258.619 64.2637 257.183 65.9224 255.44 67.2098C253.866 68.3815 252.213 69.4437 250.493 70.3888C247.637 72.0212 244.731 73.576 241.883 75.2288C240.536 76.0164 239.193 76.8122 237.867 77.6365C237.757 77.7018 237.708 77.6937 237.634 77.5876C235.443 74.3963 233.113 71.307 230.77 68.2259C229.326 66.3324 227.877 64.447 226.604 62.431C225.621 60.9398 224.857 59.3154 224.335 57.6073C223.877 55.965 223.719 54.2535 223.869 52.5551C223.958 51.4097 224.137 50.273 224.404 49.1557C224.883 47.0705 226.051 45.2077 227.719 43.8682C229.388 42.5286 231.459 41.7906 233.598 41.7733C237.222 41.7448 240.063 43.2955 242.168 46.2338C242.792 47.123 243.291 48.0938 243.65 49.119C243.646 49.1516 243.666 49.1965 243.695 49.2904Z" fill="white" stroke="#FF642D" stroke-width="1.2" stroke-linecap="round" stroke-linejoin="round"/>
<path d="M105.964 74.4945L130.608 53.1716" stroke="black" stroke-width="1.2" stroke-linecap="round" stroke-linejoin="round"/>
<path d="M133.799 51.898C134.769 51.898 135.554 51.1124 135.554 50.1432C135.554 49.1741 134.769 48.3884 133.799 48.3884C132.83 48.3884 132.045 49.1741 132.045 50.1432C132.045 51.1124 132.83 51.898 133.799 51.898Z" fill="black"/>
<path d="M113.842 108.963C118.523 104.717 119.153 97.7865 115.25 93.4828C111.346 89.1791 104.387 89.1323 99.7059 93.3782C95.0249 97.6241 94.3948 104.555 98.2985 108.859C102.202 113.162 109.161 113.209 113.842 108.963Z" fill="#FF642D"/>
<path d="M162.888 52.5514L120.422 89.3246L114.994 84.0031L157.926 46.8218L162.888 52.5514Z" fill="#FF642D" stroke="#FF642D" stroke-width="1.2" stroke-linecap="round" stroke-linejoin="round"/>
<path d="M134.204 86.782L125.327 94.4664L122.981 92.2423L131.886 84.5334L134.204 86.782Z" fill="#FF642D" stroke="#FF642D" stroke-width="1.2" stroke-linecap="round" stroke-linejoin="round"/>
<path d="M113.88 117.507L175.294 62.9167" stroke="#FF642D" stroke-width="1.2" stroke-linecap="round" stroke-linejoin="round"/>
<path d="M117.096 120.633L172.65 71.3438" stroke="#FF642D" stroke-width="1.2" stroke-linecap="round" stroke-linejoin="round"/>
<path d="M120.202 123.857L175.241 74.5679" stroke="#FF642D" stroke-width="1.2" stroke-linecap="round" stroke-linejoin="round"/>
<path d="M218.703 215.396C223.678 211.259 224.628 204.197 220.825 199.624C217.021 195.051 209.905 194.699 204.93 198.836C199.955 202.974 199.005 210.035 202.809 214.608C206.612 219.181 213.728 219.534 218.703 215.396Z" fill="#FF642D"/>
<path d="M267.886 155.807L225.457 194.625L219.752 189.328L262.341 150.367L267.886 155.807Z" fill="#FF642D" stroke="#FF642D" stroke-width="1.2" stroke-linecap="round" stroke-linejoin="round"/>
<path d="M239.488 191.637L230.62 199.75L228.159 197.542L237.055 189.401L239.488 191.637Z" fill="#FF642D" stroke="#FF642D" stroke-width="1.2" stroke-linecap="round" stroke-linejoin="round"/>
<path d="M219.552 223.648L280.872 166.066" stroke="#FF642D" stroke-width="1.2" stroke-linecap="round" stroke-linejoin="round"/>
<path d="M222.931 226.758L278.399 174.763" stroke="#FF642D" stroke-width="1.2" stroke-linecap="round" stroke-linejoin="round"/>
<path d="M226.2 229.97L281.141 177.991" stroke="#FF642D" stroke-width="1.2" stroke-linecap="round" stroke-linejoin="round"/>
<path d="M250.649 226.08L253.669 219.506L275.404 198.787L282.031 196.032L250.649 226.08Z" fill="black"/>
<path d="M184.734 20.165C185.195 18.9162 185.755 17.7058 186.407 16.5452C188.553 12.7744 191.451 9.7627 195.385 7.87732C204.91 3.31484 216.826 6.86525 221.238 17.6144C221.917 19.377 222.386 21.214 222.633 23.0869C223.114 25.9291 223.251 28.8187 223.041 31.6936C222.682 35.9541 221.246 39.8555 219.128 43.5283C217.179 46.8029 215.007 49.9391 212.627 52.9144C208.717 57.9707 204.673 62.9209 200.792 68.0139C198.956 70.4271 197.152 72.862 195.381 75.3187C195.234 75.5228 195.14 75.5432 194.928 75.4044C188.619 71.3235 182.138 67.5201 175.641 63.7452C171.646 61.4232 167.643 59.1174 163.86 56.4567C160.984 54.5228 158.4 52.1865 156.188 49.5191C154.148 46.9136 152.59 43.9643 151.588 40.8104C150.905 38.687 150.39 36.5134 150.046 34.3095C149.348 30.214 150.053 26.003 152.045 22.3573C154.037 18.7116 157.2 15.8443 161.023 14.2191C167.5 11.4604 173.744 12.1256 179.686 15.8514C181.465 16.9792 183.082 18.3439 184.493 19.9079C184.562 19.9773 184.636 20.0466 184.734 20.165Z" fill="white" stroke="#FF642D" stroke-width="1.2" stroke-linecap="round" stroke-linejoin="round"/>
<path d="M133.685 215.792C133.685 215.792 137.448 193.066 148.238 168.862C160.26 141.871 170.01 130.407 175.809 131.199C181.608 131.991 186.493 140.295 183.101 159.676C179.996 177.342 175.735 186.785 178.457 196.151C181.722 207.349 189.133 235.969 189.133 235.969" fill="#FF642D"/>
<path d="M135.738 206.108C135.738 206.108 154.828 155.742 172.65 140.703C180.542 134.031 183.501 140.703 183.501 140.703C183.501 140.703 180.693 128.461 172.65 131.807C164.606 135.153 162.219 142.417 151.156 162.512C140.092 182.606 135.738 206.108 135.738 206.108Z" fill="white"/>
<path d="M133.685 215.792C133.685 215.792 137.448 193.066 148.238 168.862C160.26 141.871 170.01 130.407 175.809 131.199C181.608 131.991 186.493 140.295 183.101 159.676C179.996 177.342 175.735 186.785 178.457 196.151C181.722 207.349 189.133 235.969 189.133 235.969" stroke="black" stroke-width="1.2" stroke-linecap="round" stroke-linejoin="round"/>
<path d="M198.97 98.536C204.181 96.7721 207.066 91.3825 205.412 86.4979C203.759 81.6134 198.194 79.0836 192.983 80.8475C187.772 82.6114 184.888 88.001 186.541 92.8855C188.194 97.7701 193.759 100.3 198.97 98.536Z" fill="black"/>
<path d="M216.732 85.0272C217.01 84.5258 217.326 84.0469 217.679 83.5948C218.779 82.125 220.312 81.0362 222.062 80.4811C226.412 79.1466 231.256 81.4237 232.448 86.2841C232.621 87.0789 232.703 87.8908 232.692 88.7041C232.71 89.9393 232.582 91.1722 232.309 92.377C231.865 94.1344 231.036 95.7711 229.881 97.168C228.843 98.4376 227.718 99.6335 226.514 100.747C224.522 102.653 222.486 104.501 220.511 106.419C219.576 107.329 218.65 108.248 217.74 109.186C217.662 109.264 217.622 109.264 217.54 109.186C215.116 107.044 212.602 105.012 210.076 102.987C208.525 101.743 206.966 100.506 205.526 99.1309C204.425 98.1194 203.476 96.9554 202.706 95.6743C202.002 94.4363 201.528 93.0815 201.306 91.675C201.145 90.7312 201.06 89.7759 201.053 88.8184C201.019 87.0302 201.588 85.2826 202.67 83.8585C203.752 82.4343 205.283 81.4169 207.015 80.9708C209.949 80.2076 212.565 80.8932 214.855 82.8562C215.541 83.4509 216.143 84.1375 216.642 84.8966L216.732 85.0272Z" fill="white" stroke="#FF642D" stroke-width="1.2" stroke-linecap="round" stroke-linejoin="round"/>
</g>
<defs>
<clipPath id="clip0">
<rect width="368" height="297.99" fill="white"/>
</clipPath>
</defs>
</svg>
